<svg xmlns="http://www.w3.org/2000/svg" viewBox="0 0 64 64" width="64" height="64" fill="none">
  <polygon points="32,4 38,22 58,22 42,34 48,52 32,42 16,52 22,34 6,22 26,22" fill="#D4A017" stroke="#1B3A26" stroke-width="2" stroke-linejoin="round"/>  <polygon points="32,14 35,24 46,24 38,30 40,40 32,34 24,40 26,30 18,24 29,24" fill="#F0D060" stroke="#D4A017" stroke-width="2" stroke-linejoin="round"/>  <circle cx="32" cy="30" r="22" fill="none" stroke="#D4A017" stroke-width="1"/>  <circle cx="10" cy="10" r="2" fill="#D4A017" stroke="#D4A017" stroke-width="2"/>  <circle cx="54" cy="10" r="2" fill="#D4A017" stroke="#D4A017" stroke-width="2"/>  <circle cx="32" cy="60" r="2" fill="#D4A017" stroke="#D4A017" stroke-width="2"/>  <circle cx="8" cy="44" r="1.5" fill="#D4A017" stroke="#D4A017" stroke-width="2"/>  <circle cx="56" cy="44" r="1.5" fill="#D4A017" stroke="#D4A017" stroke-width="2"/>
</svg>