<svg xmlns="http://www.w3.org/2000/svg" viewBox="0 0 64 64" width="64" height="64" fill="none">
  <rect x="8" y="16" width="48" height="36" rx="2" fill="#2D5A3D" stroke="#1A1A1A" stroke-width="2"/>  <line x1="8" y1="28" x2="56" y2="28" stroke="#1B3A26" stroke-width="2" stroke-linecap="round"/>  <line x1="8" y1="40" x2="56" y2="40" stroke="#1B3A26" stroke-width="2" stroke-linecap="round"/>  <line x1="24" y1="16" x2="24" y2="28" stroke="#1B3A26" stroke-width="2" stroke-linecap="round"/>  <line x1="40" y1="16" x2="40" y2="28" stroke="#1B3A26" stroke-width="2" stroke-linecap="round"/>  <line x1="16" y1="28" x2="16" y2="40" stroke="#1B3A26" stroke-width="2" stroke-linecap="round"/>  <line x1="32" y1="28" x2="32" y2="40" stroke="#1B3A26" stroke-width="2" stroke-linecap="round"/>  <line x1="48" y1="28" x2="48" y2="40" stroke="#1B3A26" stroke-width="2" stroke-linecap="round"/>  <line x1="24" y1="40" x2="24" y2="52" stroke="#1B3A26" stroke-width="2" stroke-linecap="round"/>  <line x1="40" y1="40" x2="40" y2="52" stroke="#1B3A26" stroke-width="2" stroke-linecap="round"/>  <rect x="8" y="10" width="8" height="8" rx="2" fill="#4CAF50" stroke="#1A1A1A" stroke-width="2"/>  <rect x="20" y="10" width="8" height="8" rx="2" fill="#4CAF50" stroke="#1A1A1A" stroke-width="2"/>  <rect x="36" y="10" width="8" height="8" rx="2" fill="#4CAF50" stroke="#1A1A1A" stroke-width="2"/>  <rect x="48" y="10" width="8" height="8" rx="2" fill="#4CAF50" stroke="#1A1A1A" stroke-width="2"/>
</svg>